<svg width="1863" height="223" viewBox="0 0 1863 223" fill="none" xmlns="http://www.w3.org/2000/svg">
<path d="M46.0934 36.7918L139.712 215.905H247.931L339.832 36.7918L385.925 36.7918V4.52734L247.359 4.52734V36.7918L287.44 36.7918L220.447 167.358L152.595 36.7918L201.265 36.7918V4.52734L0 4.52734L0 36.7918L46.0934 36.7918Z" fill="#242F4A" fill-opacity="0.05"/>
<path d="M782.96 36.7918V4.52734L968.479 4.52734V36.7918L922.099 36.7918V183.037H965.044C1004.84 183.037 1030.61 155.598 1030.61 117.905H1061.24V215.905L782.674 215.905V183.037H829.34V36.7918L782.96 36.7918Z" fill="#242F4A" fill-opacity="0.05"/>
<path d="M583.381 7.69385C496.776 7.69385 450.676 53.1613 450.676 110.417C450.676 168.233 494.911 214.543 583.914 214.543C672.917 214.543 716.619 168.233 716.619 110.417C716.619 53.1613 669.985 7.69385 583.381 7.69385ZM582.581 183.389C550.871 182.828 537.014 145.78 537.547 109.294C538.08 71.4044 555.401 38.2862 584.98 38.8475C614.558 39.4088 630.28 73.0884 629.748 110.978C628.948 146.622 615.091 183.95 582.581 183.389Z" fill="#242F4A" fill-opacity="0.05"/>
<path d="M1172.08 36.7918L1265.41 215.905H1373.92L1465.82 36.7918L1511.91 36.7918V4.52734L1373.34 4.52734V36.7918L1413.42 36.7918L1346.43 167.358L1278.58 36.7918L1327.25 36.7918V4.52734L1125.98 4.52734V36.7918L1172.08 36.7918Z" fill="#242F4A" fill-opacity="0.05"/>
<path d="M1719.23 0C1626.18 0 1576.65 48.849 1576.65 110.363C1576.65 172.479 1624.18 222.233 1719.8 222.233C1815.42 222.233 1862.37 172.479 1862.37 110.363C1862.37 48.849 1812.56 0 1719.23 0ZM1718.08 188.762C1684.01 188.159 1669.13 148.356 1669.7 109.157C1670.27 68.449 1688.88 32.8676 1720.66 33.4706C1752.44 34.0737 1769.33 70.2582 1768.76 110.966C1768.18 149.261 1753.3 189.365 1718.08 188.762Z" fill="#242F4A" fill-opacity="0.05"/>
</svg>
