<svg width="26" height="26" viewBox="0 0 26 26" fill="none" xmlns="http://www.w3.org/2000/svg">
<g clip-path="url(#clip0_2398_13408)">
<path fill-rule="evenodd" clip-rule="evenodd" d="M19.4684 8.52966C19.0965 8.20579 18.5087 7.89391 17.6331 7.89391C15.8098 7.89391 14.1964 7.89391 14.1964 7.89391C14.1964 7.89391 12.685 7.83993 12.685 6.07061C12.685 4.30129 12.685 2.93981 12.685 2.93981C12.685 2.93981 12.4751 1.68629 12.0612 1.32643C11.9953 1.27245 11.9893 1.23647 12.0192 1.23047C12.0132 1.23047 12.0073 1.23647 12.0073 1.23647L19.4684 8.44569V8.52366V8.52966ZM12.1512 1.23647C12.1692 1.24246 12.1812 1.24246 12.1992 1.24846C12.1812 1.24246 12.1632 1.24246 12.1512 1.23647ZM12.2052 1.24846L12.2592 1.26645C12.2412 1.26046 12.2232 1.25446 12.2052 1.24846ZM12.5111 1.35642C12.535 1.36842 12.565 1.38041 12.595 1.39241C12.565 1.38041 12.541 1.36842 12.5111 1.35642Z" fill="url(#paint0_linear_2398_13408)"/>
<path fill-rule="evenodd" clip-rule="evenodd" d="M9.93289 0.912109H7.00002H5.33266H3.62932C3.62932 0.912109 3.59333 0.912109 3.53336 0.912109H3.05354C2.19587 0.912109 1.49414 1.61384 1.49414 2.47151V3.09527V4.03091V4.04291V4.07889V4.09089V4.13887V4.22284V4.3248V4.44475V4.5647V4.5887V4.75063V4.8286V4.93656V5.1045V5.13449V5.3504V5.39239V5.58431V5.69827V5.83622V6.01015V6.10011V6.34002V6.38201V6.67589V6.68189V6.98177V7.02976V7.29965V7.38962V7.62953V7.74948V7.9654V8.12134V8.31326V8.50519V8.67312V8.89504V9.03898V9.28489V9.41084V9.68074V9.80069V10.0946V10.1965V10.5084V10.5984V10.9283V11.0062V11.3481V11.4201V11.474V11.7679V11.8279V12.1818V12.2418V12.6016V12.6556V12.8355V13.0155V13.0694V13.2494V13.4293V13.4833V13.8431V13.9031V14.257V14.317V14.6708V14.7428V14.8507V23.5954C1.49414 24.4471 2.17788 25.1368 3.02355 25.1548H3.02955H3.03555H3.04155H3.04754H3.05354H3.05954H3.06554H3.60533H7.01202H5.11675H10.4607H18.4376C19.2953 25.1548 19.997 24.4531 19.997 23.5954V12.8355V10.9343C19.997 8.58916 17.9698 8.4872 17.9698 8.4872C17.9698 8.4872 16.1465 8.4872 14.1193 8.4872C12.0921 8.4872 12.14 6.406 12.14 6.406C12.14 6.406 12.14 5.6203 12.14 3.23322C12.14 0.834139 9.95089 0.942098 9.95089 0.942098L9.93889 0.930102L9.93289 0.912109ZM19.4812 8.52918C19.1094 8.19931 18.5216 7.89342 17.6459 7.89342C15.8226 7.89342 14.2092 7.89342 14.2092 7.89342C14.2092 7.89342 12.6978 7.83945 12.6978 6.07013C12.6978 4.30081 12.6978 2.93933 12.6978 2.93933C12.6978 2.93933 12.4879 1.68581 12.0741 1.32595C12.0261 1.28397 12.0081 1.25398 12.0201 1.23598L19.4752 8.43921V8.36124C17.532 5.42237 15.9126 3.97093 14.773 2.83137C14.2272 2.28558 13.5615 1.85974 13.0217 1.58385C13.5675 1.85974 14.2332 2.28558 14.785 2.83737C15.9246 3.97693 17.544 5.42837 19.4872 8.36724V8.52318V8.52918H19.4812Z" fill="#E31E24"/>
<path d="M4.95508 13.1653H7.07226C7.53409 13.1653 7.87595 13.2733 8.10986 13.4952C8.34377 13.7171 8.45173 14.023 8.45173 14.4308C8.45173 14.8447 8.31978 15.1685 8.07388 15.4025C7.82197 15.6364 7.44412 15.7563 6.92832 15.7563H6.23259V17.2797H4.95508V13.1713V13.1653ZM6.23259 14.9226H6.54447C6.79637 14.9226 6.95831 14.8747 7.06027 14.7907C7.16223 14.7067 7.21021 14.5988 7.21021 14.4668C7.21021 14.3349 7.16223 14.2269 7.07826 14.1369C6.99429 14.047 6.82636 13.999 6.58645 13.999H6.22659V14.9106V14.9226H6.23259ZM9.12347 13.1653H11.0067C11.3786 13.1653 11.6785 13.2133 11.9124 13.3153C12.1463 13.4172 12.3262 13.5672 12.4822 13.7471C12.6321 13.939 12.7401 14.1549 12.8061 14.4008C12.872 14.6527 12.908 14.9166 12.908 15.1925C12.908 15.6364 12.86 15.9662 12.7581 16.2181C12.6561 16.458 12.5182 16.662 12.3442 16.8299C12.1703 16.9978 11.9724 17.1058 11.7685 17.1538C11.4926 17.2258 11.2407 17.2617 11.0127 17.2617H9.12947V13.1533L9.11748 13.1653H9.12347ZM10.389 14.101V16.3441H10.7009C10.9708 16.3441 11.1507 16.3141 11.2766 16.2541C11.3846 16.2001 11.4806 16.0862 11.5465 15.9482C11.6125 15.7983 11.6365 15.5584 11.6365 15.2345C11.6365 14.8027 11.5645 14.5028 11.4266 14.3409C11.2886 14.1849 11.0487 14.101 10.7129 14.101H10.401H10.389ZM13.5738 13.1653H16.7166V14.053H14.8513V14.7727H16.4467V15.6064H14.8513V17.2797H13.5738V13.1713V13.1653Z" fill="white"/>
</g>
<defs>
<linearGradient id="paint0_linear_2398_13408" x1="18.3833" y1="1.09138" x2="13.0772" y2="8.66281" gradientUnits="userSpaceOnUse">
<stop stop-color="#A42421"/>
<stop offset="1" stop-color="#E31E24"/>
</linearGradient>
<clipPath id="clip0_2398_13408">
<rect width="26" height="26" fill="white"/>
</clipPath>
</defs>
</svg>
