<svg width="21" height="21" viewBox="0 0 21 21" fill="none" xmlns="http://www.w3.org/2000/svg">
<circle cx="10.1172" cy="10.1172" r="10.1172" fill="#EEEEEE"/>
<path d="M10.1136 3.8623C8.57875 3.8623 7.33008 5.11098 7.33008 6.64579C7.33008 8.18061 8.57875 9.42928 10.1136 9.42928C11.6484 9.42928 12.8971 8.18061 12.8971 6.64579C12.8971 5.11098 11.6484 3.8623 10.1136 3.8623ZM10.1136 8.81073C8.91982 8.81073 7.94863 7.83954 7.94863 6.64579C7.94863 5.45205 8.91982 4.48086 10.1136 4.48086C11.3073 4.48086 12.2785 5.45205 12.2785 6.64579C12.2785 7.83954 11.3073 8.81073 10.1136 8.81073Z" fill="black"/>
<path d="M13.5828 11.2477C12.8208 10.474 11.8105 10.0479 10.7382 10.0479H9.50106C8.42874 10.0479 7.41848 10.474 6.65642 11.2477C5.8981 12.0177 5.48047 13.0341 5.48047 14.1097C5.48047 14.2805 5.61894 14.419 5.78975 14.419H14.4495C14.6203 14.419 14.7588 14.2805 14.7588 14.1097C14.7588 13.0341 14.3411 12.0177 13.5828 11.2477ZM6.11263 13.8004C6.26758 12.0461 7.72811 10.6664 9.50106 10.6664H10.7382C12.5111 10.6664 13.9717 12.0461 14.1266 13.8004H6.11263Z" fill="black"/>
</svg>
